<svg width="24" height="24" viewBox="0 0 24 24" fill="none" xmlns="http://www.w3.org/2000/svg">
<path d="M4.49294 10.4315C4.7895 11.0989 5.24406 11.684 5.81734 12.1364C6.39063 12.5888 7.06542 12.8949 7.78345 13.0282C8.50148 13.1615 9.24117 13.1181 9.93865 12.9016C10.6361 12.6851 11.2704 12.3021 11.7868 11.7856C12.3031 11.2692 12.686 10.6348 12.9024 9.9373C13.1187 9.23978 13.1621 8.50009 13.0286 7.78208C12.8952 7.06408 12.589 6.38934 12.1364 5.81614C11.6839 5.24294 11.0987 4.7885 10.4312 4.49206M9.91942 5.90717C9.68206 6.89708 9.32885 7.88923 8.60892 8.60916C7.88899 9.32909 6.89796 9.68231 5.90693 9.91966C4.29896 10.3047 2.88829 11.2667 1.94256 12.6229C0.996839 13.9792 0.581864 15.6354 0.776374 17.2774C0.970883 18.9194 1.76134 20.4328 2.99778 21.5305C4.23421 22.6283 5.83059 23.234 7.48402 23.2328C16.1817 23.2328 23.2325 16.1819 23.2325 7.48427C23.2338 5.83083 22.6281 4.23445 21.5303 2.99802C20.4325 1.76159 18.9191 0.971127 17.2772 0.776618C15.6352 0.582108 13.979 0.997083 12.6227 1.94281C11.2664 2.88853 10.3045 4.2992 9.91942 5.90717Z" stroke="#5AC178" stroke-width="1.45932" stroke-linecap="round" stroke-linejoin="round"/>
</svg>
