<svg width="26" height="27" viewBox="0 0 26 27" fill="none" xmlns="http://www.w3.org/2000/svg">
<path d="M21.1868 5.69535L23.9006 11.2716C24.42 12.8687 24.4256 14.5884 23.9166 16.1889C23.4076 17.7894 22.4095 19.1899 21.0629 20.1935C17.3454 23.2914 11.8931 25.5219 6.93648 25.5219C6.24658 25.521 5.57055 25.328 4.98405 24.9648C4.39754 24.6015 3.92369 24.0821 3.61554 23.4649L1.23635 18.7065M18.5846 15.2369C19.6009 14.4731 20.422 13.4795 20.9807 12.3375C21.5394 11.1955 21.8198 9.93749 21.7991 8.66631C21.7783 7.39514 21.4569 6.14693 20.8612 5.02379C20.2654 3.90066 19.4123 2.93449 18.3716 2.20431C17.3308 1.47414 16.132 1.0007 14.8732 0.822725C13.6143 0.644747 12.3313 0.767284 11.1289 1.18031C9.92649 1.59334 8.83896 2.28513 7.95522 3.1991C7.07149 4.11307 6.41666 5.22325 6.04429 6.43884C4.68121 10.3174 5.07775 11.2716 2.10376 13.9729C1.51115 14.4588 1.08316 15.1159 0.878371 15.8543C0.673581 16.5928 0.702 17.3764 0.959738 18.0981C1.21748 18.8198 1.69194 19.4442 2.31818 19.8858C2.94443 20.3274 3.69186 20.5647 4.45817 20.5653C9.4148 20.5653 14.8671 18.3348 18.5846 15.2369ZM16.8498 8.79324C16.8498 10.5042 15.4628 11.8911 13.7519 11.8911C12.0409 11.8911 10.654 10.5042 10.654 8.79324C10.654 7.08232 12.0409 5.69535 13.7519 5.69535C15.4628 5.69535 16.8498 7.08232 16.8498 8.79324Z" stroke="#5AC178" stroke-width="1.48699" stroke-linecap="round" stroke-linejoin="round"/>
</svg>
