<svg width="21" height="23" viewBox="0 0 21 23" fill="none" xmlns="http://www.w3.org/2000/svg">
<path d="M8.36628 10.419V16.5756M12.4707 10.419V16.5756M17.6012 5.28848V19.6539C17.6012 20.1981 17.385 20.7201 17.0001 21.105C16.6152 21.4898 16.0933 21.7061 15.549 21.7061H5.28799C4.74371 21.7061 4.22173 21.4898 3.83687 21.105C3.452 20.7201 3.23579 20.1981 3.23579 19.6539V5.28848M1.18359 5.28848H19.6534M6.31409 5.28848V3.23628C6.31409 2.692 6.5303 2.17002 6.91516 1.78516C7.30002 1.40029 7.82201 1.18408 8.36628 1.18408H12.4707C13.015 1.18408 13.5369 1.40029 13.9218 1.78516C14.3067 2.17002 14.5229 2.692 14.5229 3.23628V5.28848" stroke="white" stroke-width="2.36792" stroke-linecap="round" stroke-linejoin="round"/>
</svg>
