<svg width="33" height="33" viewBox="0 0 33 33" fill="none" xmlns="http://www.w3.org/2000/svg">
<path d="M16.4167 7.98067V2.54167C16.4167 2.13279 16.5791 1.74066 16.8682 1.45154C17.1574 1.16243 17.5495 1 17.9584 1M16.4167 7.98067C17.7476 6.79025 19.3947 6.0105 21.159 5.73553C22.9233 5.46057 24.7295 5.70215 26.3596 6.43111C27.9896 7.16007 29.3738 8.34525 30.3452 9.84359C31.3165 11.3419 31.8333 13.0894 31.8334 14.875C31.8574 20.5518 29.7926 26.039 26.0321 30.2917C25.3419 31.0638 24.4124 31.582 23.3927 31.7631C22.373 31.9443 21.322 31.7779 20.4081 31.2907C19.1797 30.6353 17.8089 30.2925 16.4167 30.2925C15.0245 30.2925 13.6537 30.6353 12.4253 31.2907C11.5114 31.7779 10.4604 31.9443 9.44068 31.7631C8.42096 31.582 7.49154 31.0638 6.80133 30.2917C3.05332 26.0315 0.990307 20.5492 1.00003 14.875C1.00007 13.0894 1.51694 11.3419 2.48825 9.84359C3.45956 8.34525 4.84378 7.16007 6.47383 6.43111C8.10389 5.70215 9.91009 5.46057 11.6744 5.73553C13.4387 6.0105 15.0858 6.79025 16.4167 7.98067Z" stroke="#5AC178" stroke-width="2" stroke-linecap="round" stroke-linejoin="round"/>
</svg>
