<svg width="14" height="14" viewBox="0 0 14 14" fill="none" xmlns="http://www.w3.org/2000/svg">
<path d="M5.65983 3.37053C5.5244 3.93538 5.32285 4.5015 4.91206 4.9123C4.50126 5.3231 3.93577 5.52464 3.37029 5.66008C2.45277 5.87981 1.64784 6.42869 1.1082 7.20259C0.568565 7.97648 0.331778 8.92153 0.442766 9.85844C0.553755 10.7953 1.0048 11.6589 1.71031 12.2853C2.41583 12.9117 3.32673 13.2573 4.27019 13.2566C9.23312 13.2566 13.2564 9.23336 13.2564 4.27043C13.2571 3.32697 12.9115 2.41607 12.2851 1.71055C11.6587 1.00504 10.7951 0.553999 9.8582 0.443011C8.92129 0.332022 7.97623 0.568809 7.20234 1.10844C6.42845 1.64808 5.87957 2.45302 5.65983 3.37053Z" fill="#5AC178"/>
<path d="M2.56346 5.95213C2.73268 6.33293 2.99205 6.66683 3.31917 6.92498C3.64629 7.18313 4.03133 7.35778 4.44104 7.43384C4.85075 7.50991 5.27282 7.48511 5.67081 7.36157C6.06879 7.23804 6.43072 7.0195 6.72535 6.72481C7.01999 6.43012 7.23846 6.06815 7.36192 5.67014C7.48537 5.27214 7.5101 4.85006 7.43395 4.44036C7.35781 4.03067 7.18309 3.64566 6.92488 3.31859C6.66667 2.99152 6.33272 2.73221 5.95188 2.56306" fill="#5AC178"/>
<path d="M2.56346 5.95213C2.73268 6.33293 2.99205 6.66683 3.31917 6.92498C3.64629 7.18313 4.03133 7.35778 4.44104 7.43384C4.85075 7.50991 5.27282 7.4851 5.67081 7.36157C6.06879 7.23804 6.43072 7.0195 6.72535 6.72481C7.01999 6.43012 7.23846 6.06815 7.36192 5.67014C7.48537 5.27214 7.5101 4.85006 7.43395 4.44036C7.35781 4.03067 7.18309 3.64566 6.92488 3.31859C6.66667 2.99152 6.33272 2.73221 5.95188 2.56306M5.65983 3.37053C5.5244 3.93538 5.32285 4.5015 4.91206 4.9123C4.50126 5.3231 3.93577 5.52464 3.37029 5.66008C2.45277 5.87981 1.64783 6.42869 1.1082 7.20259C0.568565 7.97648 0.331778 8.92153 0.442766 9.85844C0.553755 10.7953 1.0048 11.6589 1.71031 12.2853C2.41583 12.9117 3.32673 13.2573 4.27019 13.2566C9.23312 13.2566 13.2564 9.23336 13.2564 4.27043C13.2571 3.32697 12.9115 2.41607 12.2851 1.71055C11.6587 1.00504 10.7951 0.553999 9.8582 0.443011C8.92129 0.332022 7.97623 0.568809 7.20234 1.10844C6.42845 1.64808 5.87957 2.45302 5.65983 3.37053Z" stroke="#5AC178" stroke-width="0.832695" stroke-linecap="round" stroke-linejoin="round"/>
</svg>
