<svg width="18" height="23" viewBox="0 0 18 23" fill="none" xmlns="http://www.w3.org/2000/svg">
<path d="M8.29023 2.23304H2.76285C2.344 2.23304 1.94231 2.45489 1.64615 2.84978C1.34998 3.24467 1.18359 3.78026 1.18359 4.33871V19.0784C1.18359 19.6369 1.34998 20.1725 1.64615 20.5673C1.94231 20.9622 2.344 21.1841 2.76285 21.1841H13.8176C14.2365 21.1841 14.6382 20.9622 14.9343 20.5673C15.2305 20.1725 15.3969 19.6369 15.3969 19.0784V11.7086M13.3241 1.83823C13.6382 1.41939 14.0643 1.18408 14.5085 1.18408C14.9528 1.18408 15.3788 1.41939 15.693 1.83823C16.0071 2.25707 16.1836 2.82515 16.1836 3.41748C16.1836 4.00982 16.0071 4.57789 15.693 4.99674L8.57608 14.487C8.38858 14.7368 8.15695 14.9196 7.90253 15.0187L5.63393 15.9031C5.56598 15.9295 5.49396 15.9311 5.4254 15.9076C5.35683 15.8842 5.29425 15.8367 5.24421 15.7699C5.19416 15.7032 5.15849 15.6198 5.14092 15.5283C5.12335 15.4369 5.12454 15.3409 5.14436 15.2503L5.80765 12.2255C5.88229 11.8865 6.01969 11.5781 6.2072 11.3285L13.3241 1.83823Z" stroke="#636363" stroke-width="2.36792" stroke-linecap="round" stroke-linejoin="round"/>
</svg>
