<svg width="15" height="15" viewBox="0 0 15 15" fill="none" xmlns="http://www.w3.org/2000/svg">
<path d="M10.6042 8.69436C11.1842 8.25854 11.6527 7.69162 11.9715 7.03999C12.2903 6.38835 12.4503 5.67051 12.4384 4.94517C12.4266 4.21983 12.2432 3.50759 11.9033 2.86673C11.5633 2.22586 11.0765 1.67456 10.4827 1.25792C9.88883 0.841276 9.20477 0.57113 8.48648 0.469575C7.76819 0.36802 7.03606 0.43794 6.34997 0.673617C5.66388 0.909294 5.04333 1.30403 4.53907 1.82555C4.0348 2.34706 3.66115 2.98054 3.44868 3.67416C2.6709 5.88729 2.89716 6.43174 1.20019 7.97315C0.862045 8.25037 0.617832 8.62532 0.500978 9.04668C0.384124 9.46804 0.40034 9.91521 0.547406 10.327C0.694473 10.7388 0.965203 11.0951 1.32254 11.3471C1.67988 11.5991 2.10637 11.7345 2.54363 11.7348C5.37191 11.7348 8.48302 10.462 10.6042 8.69436Z" fill="#5AC178"/>
<path d="M12.0891 3.24992L13.6376 6.43174C13.934 7.34305 13.9372 8.32437 13.6467 9.23759C13.3562 10.1508 12.7868 10.95 12.0184 11.5226C9.89716 13.2903 6.78605 14.5631 3.95777 14.5631C3.56411 14.5625 3.17836 14.4524 2.8437 14.2451C2.50903 14.0379 2.23866 13.7415 2.06282 13.3893L0.705244 10.6742" fill="#5AC178"/>
<path d="M7.84666 6.78527C8.82292 6.78527 9.61434 5.99386 9.61434 5.01759C9.61434 4.04133 8.82292 3.24992 7.84666 3.24992C6.8704 3.24992 6.07898 4.04133 6.07898 5.01759C6.07898 5.99386 6.8704 6.78527 7.84666 6.78527Z" fill="#5AC178"/>
<path d="M12.0891 3.24992L13.6376 6.43174C13.934 7.34305 13.9372 8.32437 13.6467 9.23759C13.3562 10.1508 12.7868 10.95 12.0184 11.5226C9.89716 13.2903 6.78605 14.5631 3.95777 14.5631C3.56411 14.5625 3.17836 14.4524 2.8437 14.2451C2.50903 14.0379 2.23866 13.7415 2.06282 13.3893L0.705244 10.6742M10.6042 8.69436C11.1842 8.25854 11.6527 7.69162 11.9715 7.03999C12.2903 6.38835 12.4503 5.67051 12.4384 4.94517C12.4266 4.21983 12.2432 3.50759 11.9033 2.86673C11.5633 2.22586 11.0765 1.67456 10.4827 1.25792C9.88883 0.841276 9.20477 0.57113 8.48648 0.469575C7.76819 0.36802 7.03606 0.43794 6.34997 0.673617C5.66388 0.909294 5.04333 1.30403 4.53907 1.82555C4.0348 2.34706 3.66115 2.98054 3.44868 3.67416C2.6709 5.88729 2.89716 6.43174 1.20019 7.97315C0.862045 8.25037 0.617832 8.62532 0.500978 9.04668C0.384124 9.46804 0.40034 9.91521 0.547406 10.327C0.694473 10.7388 0.965203 11.0951 1.32254 11.3471C1.67988 11.5991 2.10637 11.7345 2.54363 11.7348C5.37191 11.7348 8.48302 10.462 10.6042 8.69436ZM9.61433 5.01759C9.61433 5.99386 8.82292 6.78527 7.84666 6.78527C6.8704 6.78527 6.07898 5.99386 6.07898 5.01759C6.07898 4.04133 6.8704 3.24992 7.84666 3.24992C8.82292 3.24992 9.61433 4.04133 9.61433 5.01759Z" stroke="#5AC178" stroke-width="0.848485" stroke-linecap="round" stroke-linejoin="round"/>
</svg>
