<svg width="30" height="43" viewBox="0 0 30 43" fill="none" xmlns="http://www.w3.org/2000/svg">
<path d="M8.23036 24.7886L3.70186 22.2702M20.2693 23.248L14.8293 20.2053M16.7595 13.0689C16.7595 13.0689 18.9919 8.71428 21.8194 7.91516C25.5608 6.85778 28.8284 9.65798 28.8284 9.65798C28.8284 9.65798 27.5099 13.7543 23.7685 14.8117C20.0271 15.8691 16.7595 13.0689 16.7595 13.0689ZM16.7595 13.0689C16.7595 13.0689 12.6632 11.7503 11.6058 8.00894C10.5484 4.26757 13.3486 0.999935 13.3486 0.999935C13.3486 0.999935 17.445 2.31849 18.5023 6.05986C19.3112 8.92193 16.7595 13.0689 16.7595 13.0689ZM0.999608 41.1683C0.999608 41.1683 16.3114 30.3245 19.8488 23.9999C20.3664 23.0761 20.6971 22.0593 20.8218 21.0078C20.9465 19.9562 20.8629 18.8903 20.5757 17.8711C20.2885 16.8518 19.8033 15.8991 19.148 15.0673C18.4926 14.2355 17.6798 13.541 16.7559 13.0233C15.8321 12.5057 14.8154 12.1751 13.7638 12.0503C12.7122 11.9256 11.6464 12.0092 10.6271 12.2964C9.60785 12.5836 8.65513 13.0688 7.82336 13.7242C6.99159 14.3796 6.29705 15.1924 5.7794 16.1162C2.2296 22.4629 0.999608 41.1683 0.999608 41.1683Z" stroke="#5AC178" stroke-width="2" stroke-linecap="round" stroke-linejoin="round"/>
</svg>
