<svg width="26" height="27" viewBox="0 0 26 27" fill="none" xmlns="http://www.w3.org/2000/svg">
<path d="M21.1868 5.69547L23.9006 11.2717C24.42 12.8688 24.4256 14.5886 23.9166 16.189C23.4076 17.7895 22.4095 19.19 21.0629 20.1936C17.3454 23.2915 11.8931 25.522 6.93648 25.522C6.24658 25.5211 5.57055 25.3282 4.98405 24.9649C4.39754 24.6016 3.92369 24.0823 3.61554 23.465L1.23635 18.7066M18.5846 15.237C19.6009 14.4732 20.422 13.4797 20.9807 12.3377C21.5394 11.1957 21.8198 9.93761 21.7991 8.66643C21.7783 7.39526 21.4569 6.14705 20.8612 5.02392C20.2654 3.90078 19.4123 2.93461 18.3716 2.20444C17.3308 1.47426 16.132 1.00082 14.8732 0.822847C13.6143 0.644869 12.3313 0.767406 11.1289 1.18044C9.92649 1.59347 8.83896 2.28526 7.95522 3.19922C7.07149 4.11319 6.41666 5.22337 6.04429 6.43896C4.68121 10.3175 5.07775 11.2717 2.10376 13.9731C1.51115 14.4589 1.08316 15.116 0.878371 15.8544C0.673581 16.5929 0.702 17.3766 0.959738 18.0982C1.21748 18.8199 1.69194 19.4443 2.31818 19.8859C2.94443 20.3276 3.69186 20.5649 4.45817 20.5654C9.4148 20.5654 14.8671 18.3349 18.5846 15.237ZM16.8498 8.79337C16.8498 10.5043 15.4628 11.8913 13.7519 11.8913C12.0409 11.8913 10.654 10.5043 10.654 8.79337C10.654 7.08244 12.0409 5.69547 13.7519 5.69547C15.4628 5.69547 16.8498 7.08244 16.8498 8.79337Z" stroke="#5AC178" stroke-width="1.48699" stroke-linecap="round" stroke-linejoin="round"/>
</svg>
