<svg width="24" height="24" viewBox="0 0 24 24" fill="none" xmlns="http://www.w3.org/2000/svg">
<path d="M4.49294 10.4314C4.7895 11.0987 5.24406 11.6839 5.81734 12.1363C6.39063 12.5887 7.06542 12.8948 7.78345 13.0281C8.50148 13.1614 9.24117 13.1179 9.93865 12.9015C10.6361 12.685 11.2704 12.302 11.7868 11.7855C12.3031 11.2691 12.686 10.6347 12.9024 9.93718C13.1187 9.23966 13.1621 8.49996 13.0286 7.78196C12.8952 7.06395 12.589 6.38922 12.1364 5.81602C11.6839 5.24282 11.0987 4.78838 10.4312 4.49193M9.91942 5.90705C9.68206 6.89695 9.32885 7.88911 8.60892 8.60904C7.88899 9.32897 6.89796 9.68219 5.90693 9.91954C4.29896 10.3046 2.88829 11.2666 1.94256 12.6228C0.996839 13.9791 0.581864 15.6353 0.776374 17.2773C0.970883 18.9192 1.76134 20.4327 2.99778 21.5304C4.23421 22.6282 5.83059 23.2339 7.48402 23.2326C16.1817 23.2326 23.2325 16.1818 23.2325 7.48415C23.2338 5.83071 22.6281 4.23433 21.5303 2.9979C20.4325 1.76147 18.9191 0.971005 17.2772 0.776496C15.6352 0.581986 13.979 0.996961 12.6227 1.94269C11.2664 2.88841 10.3045 4.29908 9.91942 5.90705Z" stroke="#5AC178" stroke-width="1.45932" stroke-linecap="round" stroke-linejoin="round"/>
</svg>
