<svg width="17" height="19" viewBox="0 0 17 19" fill="none" xmlns="http://www.w3.org/2000/svg">
<path d="M4.08333 7.75V5.125C4.08333 3.96468 4.52232 2.85188 5.30372 2.03141C6.08512 1.21094 7.14493 0.75 8.25 0.75C9.35507 0.75 10.4149 1.21094 11.1963 2.03141C11.9777 2.85188 12.4167 3.96468 12.4167 5.125V7.75M9.08333 13C9.08333 13.4833 8.71024 13.875 8.25 13.875C7.78976 13.875 7.41667 13.4833 7.41667 13C7.41667 12.5168 7.78976 12.125 8.25 12.125C8.71024 12.125 9.08333 12.5168 9.08333 13ZM2.41667 7.75H14.0833C15.0038 7.75 15.75 8.5335 15.75 9.5V16.5C15.75 17.4665 15.0038 18.25 14.0833 18.25H2.41667C1.49619 18.25 0.75 17.4665 0.75 16.5V9.5C0.75 8.5335 1.49619 7.75 2.41667 7.75Z" stroke="#B0B0B0" stroke-width="1.5" stroke-linecap="round" stroke-linejoin="round"/>
</svg>
