<svg width="18" height="19" viewBox="0 0 18 19" fill="none" xmlns="http://www.w3.org/2000/svg">
<path d="M6.90104 8.59375V13.6719M10.2865 8.59375V13.6719M14.5182 4.36198V16.2109C14.5182 16.6599 14.3399 17.0904 14.0224 17.4079C13.705 17.7253 13.2745 17.9036 12.8255 17.9036H4.36198C3.91304 17.9036 3.4825 17.7253 3.16505 17.4079C2.84761 17.0904 2.66927 16.6599 2.66927 16.2109V4.36198M0.976562 4.36198H16.2109M5.20833 4.36198V2.66927C5.20833 2.22034 5.38667 1.78979 5.70412 1.47235C6.02156 1.1549 6.45211 0.976563 6.90104 0.976562H10.2865C10.7354 0.976563 11.1659 1.1549 11.4834 1.47235C11.8008 1.78979 11.9792 2.22034 11.9792 2.66927V4.36198" stroke="white" stroke-width="1.95312" stroke-linecap="round" stroke-linejoin="round"/>
</svg>
