<svg width="15" height="17" viewBox="0 0 15 17" fill="none" xmlns="http://www.w3.org/2000/svg">
<path d="M10.375 6.625C10.375 7.42065 10.0589 8.18371 9.49632 8.74632C8.93371 9.30893 8.17065 9.625 7.375 9.625C6.57935 9.625 5.81629 9.30893 5.25368 8.74632C4.69107 8.18371 4.375 7.42065 4.375 6.625M0.70225 3.6505H14.0477M0.925 3.22525C0.730267 3.48489 0.625 3.80069 0.625 4.12525V14.125C0.625 14.5228 0.783035 14.9044 1.06434 15.1857C1.34564 15.467 1.72718 15.625 2.125 15.625H12.625C13.0228 15.625 13.4044 15.467 13.6857 15.1857C13.967 14.9044 14.125 14.5228 14.125 14.125V4.12525C14.125 3.80069 14.0197 3.48489 13.825 3.22525L12.325 1.225C12.1853 1.03871 12.0041 0.887501 11.7958 0.783359C11.5875 0.679218 11.3579 0.625 11.125 0.625H3.625C3.39213 0.625 3.16246 0.679218 2.95418 0.783359C2.7459 0.887501 2.56472 1.03871 2.425 1.225L0.925 3.22525Z" stroke="#B0B0B0" stroke-width="1.25" stroke-linecap="round" stroke-linejoin="round"/>
</svg>
