<svg width="10" height="11" viewBox="0 0 10 11" fill="none" xmlns="http://www.w3.org/2000/svg">
<path d="M3.8441 4.78706V7.61577M5.7299 4.78706V7.61577M8.08715 2.42981V9.03012C8.08715 9.28019 7.98781 9.52002 7.81099 9.69685C7.63416 9.87368 7.39433 9.97302 7.14425 9.97302H2.42975C2.17967 9.97302 1.93984 9.87368 1.76302 9.69685C1.58619 9.52002 1.48685 9.28019 1.48685 9.03012V2.42981M0.543945 2.42981H9.03006M2.9012 2.42981V1.48691C2.9012 1.23683 3.00054 0.997004 3.17737 0.820176C3.3542 0.643347 3.59403 0.544006 3.8441 0.544006H5.7299C5.97997 0.544006 6.21981 0.643347 6.39663 0.820176C6.57346 0.997004 6.6728 1.23683 6.6728 1.48691V2.42981" stroke="white" stroke-width="1.08796" stroke-linecap="round" stroke-linejoin="round"/>
</svg>
