<svg width="22" height="27" viewBox="0 0 22 27" fill="none" xmlns="http://www.w3.org/2000/svg">
<path d="M10.1585 2.47557H3.17802C2.64906 2.47557 2.14177 2.74873 1.76775 3.23496C1.39372 3.7212 1.18359 4.38068 1.18359 5.06832V23.2176C1.18359 23.9052 1.39372 24.5647 1.76775 25.0509C2.14177 25.5372 2.64906 25.8103 3.17802 25.8103H17.139C17.6679 25.8103 18.1752 25.5372 18.5493 25.0509C18.9233 24.5647 19.1334 23.9052 19.1334 23.2176V14.1429M16.5157 1.98942C16.9124 1.47369 17.4505 1.18396 18.0116 1.18396C18.5726 1.18396 19.1107 1.47369 19.5074 1.98942C19.9041 2.50515 20.127 3.20464 20.127 3.93399C20.127 4.66334 19.9041 5.36282 19.5074 5.87855L10.5195 17.5641C10.2827 17.8716 9.99018 18.0968 9.66887 18.2188L6.80388 19.3077C6.71807 19.3402 6.62711 19.3422 6.54053 19.3134C6.45394 19.2845 6.37491 19.2259 6.3117 19.1438C6.2485 19.0616 6.20345 18.9589 6.18127 18.8463C6.15908 18.7338 6.16058 18.6155 6.18561 18.504L7.02327 14.7795C7.11753 14.3621 7.29105 13.9823 7.52786 13.675L16.5157 1.98942Z" stroke="#636363" stroke-width="2.36792" stroke-linecap="round" stroke-linejoin="round"/>
</svg>
