<svg width="72" height="79" viewBox="0 0 72 79" fill="none" xmlns="http://www.w3.org/2000/svg">
<path d="M50.6136 32.0721C50.6136 36.0061 49.0508 39.779 46.269 42.5608C43.4872 45.3426 39.7143 46.9054 35.7803 46.9054C31.8462 46.9054 28.0733 45.3426 25.2915 42.5608C22.5097 39.779 20.9469 36.0061 20.9469 32.0721M2.78723 17.3648H68.7733M3.88861 15.2622C2.92576 16.546 2.40527 18.1074 2.40527 19.7122V69.1554C2.40527 71.1224 3.18667 73.0089 4.57756 74.3998C5.96846 75.7907 7.85492 76.5721 9.82194 76.5721H61.7386C63.7056 76.5721 65.5921 75.7907 66.983 74.3998C68.3739 73.0089 69.1553 71.1224 69.1553 69.1554V19.7122C69.1553 18.1074 68.6348 16.546 67.6719 15.2622L60.2553 5.37206C59.5644 4.45094 58.6686 3.70332 57.6388 3.18839C56.6089 2.67347 55.4733 2.4054 54.3219 2.4054H17.2386C16.0872 2.4054 14.9516 2.67347 13.9218 3.18839C12.8919 3.70332 11.9961 4.45094 11.3053 5.37206L3.88861 15.2622Z" stroke="#85D68E" stroke-width="4.81081" stroke-linecap="round" stroke-linejoin="round"/>
</svg>
