<svg width="20" height="22" viewBox="0 0 20 22" fill="none" xmlns="http://www.w3.org/2000/svg">
<path d="M14 9C14 10.0609 13.5786 11.0783 12.8284 11.8284C12.0783 12.5786 11.0609 13 10 13C8.93913 13 7.92172 12.5786 7.17157 11.8284C6.42143 11.0783 6 10.0609 6 9M1.103 5.034H18.897M1.4 4.467C1.14036 4.81319 1 5.23426 1 5.667V19C1 19.5304 1.21071 20.0391 1.58579 20.4142C1.96086 20.7893 2.46957 21 3 21H17C17.5304 21 18.0391 20.7893 18.4142 20.4142C18.7893 20.0391 19 19.5304 19 19V5.667C19 5.23426 18.8596 4.81319 18.6 4.467L16.6 1.8C16.4137 1.55161 16.1721 1.35 15.8944 1.21115C15.6167 1.07229 15.3105 1 15 1H5C4.68951 1 4.38328 1.07229 4.10557 1.21115C3.82786 1.35 3.58629 1.55161 3.4 1.8L1.4 4.467Z" stroke="#E4FFE7" stroke-width="2" stroke-linecap="round" stroke-linejoin="round"/>
</svg>
