<svg width="30" height="43" viewBox="0 0 30 43" fill="none" xmlns="http://www.w3.org/2000/svg">
<path d="M8.23085 24.7886L3.70235 22.2702M20.2698 23.248L14.8298 20.2053M16.76 13.0689C16.76 13.0689 18.9923 8.71428 21.8199 7.91516C25.5613 6.85778 28.8289 9.65798 28.8289 9.65798C28.8289 9.65798 27.5104 13.7543 23.769 14.8117C20.0276 15.8691 16.76 13.0689 16.76 13.0689ZM16.76 13.0689C16.76 13.0689 12.6637 11.7503 11.6063 8.00894C10.5489 4.26757 13.3491 0.999935 13.3491 0.999935C13.3491 0.999935 17.4454 2.31849 18.5028 6.05986C19.3117 8.92193 16.76 13.0689 16.76 13.0689ZM1.0001 41.1683C1.0001 41.1683 16.3119 30.3245 19.8493 23.9999C20.3669 23.0761 20.6976 22.0593 20.8223 21.0078C20.947 19.9562 20.8634 18.8903 20.5762 17.8711C20.289 16.8518 19.8038 15.8991 19.1484 15.0673C18.493 14.2355 17.6802 13.541 16.7564 13.0233C15.8326 12.5057 14.8159 12.1751 13.7643 12.0503C12.7127 11.9256 11.6469 12.0092 10.6276 12.2964C9.60834 12.5836 8.65562 13.0688 7.82385 13.7242C6.99207 14.3796 6.29753 15.1924 5.77988 16.1162C2.23008 22.4629 1.0001 41.1683 1.0001 41.1683Z" stroke="#5AC178" stroke-width="2" stroke-linecap="round" stroke-linejoin="round"/>
</svg>
