<svg width="14" height="16" viewBox="0 0 14 16" fill="none" xmlns="http://www.w3.org/2000/svg">
<path d="M5.52083 6.875V10.9375M8.22917 6.875V10.9375M11.6146 3.48958V12.9687C11.6146 13.3279 11.4719 13.6723 11.218 13.9263C10.964 14.1802 10.6196 14.3229 10.2604 14.3229H3.48958C3.13044 14.3229 2.786 14.1802 2.53204 13.9263C2.27809 13.6723 2.13542 13.3279 2.13542 12.9687V3.48958M0.78125 3.48958H12.9687M4.16667 3.48958V2.13542C4.16667 1.77627 4.30934 1.43183 4.56329 1.17788C4.81725 0.923921 5.16169 0.78125 5.52083 0.78125H8.22917C8.58831 0.78125 8.93275 0.923921 9.18671 1.17788C9.44066 1.43183 9.58333 1.77627 9.58333 2.13542V3.48958" stroke="white" stroke-width="1.5625" stroke-linecap="round" stroke-linejoin="round"/>
</svg>
