<svg width="16" height="16" viewBox="0 0 16 16" fill="none" xmlns="http://www.w3.org/2000/svg">
<path d="M6.9694 8.54738V11.7033M10.1254 2.23545V5.39142M0.657471 0.657471V13.2813C0.657471 13.6998 0.823722 14.1012 1.11965 14.3971C1.41558 14.6931 1.81695 14.8593 2.23545 14.8593H14.8593M4.60242 8.54738H10.1254C10.5611 8.54738 10.9144 8.90062 10.9144 9.33637V10.9144C10.9144 11.3501 10.5611 11.7033 10.1254 11.7033H4.60242C4.16668 11.7033 3.81343 11.3501 3.81343 10.9144V9.33637C3.81343 8.90062 4.16668 8.54738 4.60242 8.54738ZM4.60242 2.23545H12.4923C12.9281 2.23545 13.2813 2.5887 13.2813 3.02444V4.60242C13.2813 5.03817 12.9281 5.39142 12.4923 5.39142H4.60242C4.16668 5.39142 3.81343 5.03817 3.81343 4.60242V3.02444C3.81343 2.5887 4.16668 2.23545 4.60242 2.23545Z" stroke="#636363" stroke-width="1.31498" stroke-linecap="round" stroke-linejoin="round"/>
</svg>
