<svg width="24" height="24" viewBox="0 0 24 24" fill="none" xmlns="http://www.w3.org/2000/svg">
<path d="M4.49318 10.4314C4.78975 11.0987 5.2443 11.6839 5.81759 12.1363C6.39088 12.5887 7.06567 12.8948 7.7837 13.0281C8.50173 13.1614 9.24142 13.1179 9.93889 12.9015C10.6364 12.685 11.2707 12.302 11.787 11.7855C12.3034 11.2691 12.6862 10.6347 12.9026 9.93718C13.119 9.23966 13.1623 8.49996 13.0289 7.78196C12.8954 7.06395 12.5892 6.38922 12.1367 5.81602C11.6842 5.24282 11.0989 4.78838 10.4315 4.49193M9.91966 5.90705C9.68231 6.89695 9.32909 7.88911 8.60916 8.60904C7.88923 9.32897 6.8982 9.68219 5.90717 9.91954C4.2992 10.3046 2.88853 11.2666 1.94281 12.6228C0.997083 13.9791 0.582108 15.6353 0.776618 17.2773C0.971127 18.9192 1.76159 20.4327 2.99802 21.5304C4.23445 22.6282 5.83083 23.2339 7.48427 23.2326C16.1819 23.2326 23.2328 16.1818 23.2328 7.48415C23.234 5.83071 22.6283 4.23433 21.5305 2.9979C20.4328 1.76147 18.9194 0.971005 17.2774 0.776496C15.6354 0.581986 13.9792 0.996961 12.6229 1.94269C11.2667 2.88841 10.3047 4.29908 9.91966 5.90705Z" stroke="#5AC178" stroke-width="1.45932" stroke-linecap="round" stroke-linejoin="round"/>
</svg>
