<svg width="26" height="27" viewBox="0 0 26 27" fill="none" xmlns="http://www.w3.org/2000/svg">
<path d="M21.1871 5.69547L23.9008 11.2717C24.4203 12.8688 24.4259 14.5886 23.9168 16.189C23.4078 17.7895 22.4098 19.19 21.0631 20.1936C17.3457 23.2915 11.8934 25.522 6.93673 25.522C6.24683 25.5211 5.5708 25.3282 4.98429 24.9649C4.39778 24.6016 3.92394 24.0823 3.61578 23.465L1.2366 18.7066M18.5848 15.237C19.6012 14.4732 20.4223 13.4797 20.981 12.3377C21.5397 11.1957 21.8201 9.93761 21.7993 8.66643C21.7785 7.39526 21.4571 6.14705 20.8614 5.02392C20.2657 3.90078 19.4126 2.93461 18.3718 2.20444C17.3311 1.47426 16.1322 1.00082 14.8734 0.822847C13.6146 0.644869 12.3315 0.767406 11.1291 1.18044C9.92674 1.59347 8.8392 2.28526 7.95547 3.19922C7.07173 4.11319 6.4169 5.22337 6.04453 6.43896C4.68146 10.3175 5.07799 11.2717 2.10401 13.9731C1.51139 14.4589 1.0834 15.116 0.878615 15.8544C0.673825 16.5929 0.702244 17.3766 0.959982 18.0982C1.21772 18.8199 1.69218 19.4443 2.31843 19.8859C2.94467 20.3276 3.6921 20.5649 4.45841 20.5654C9.41505 20.5654 14.8673 18.3349 18.5848 15.237ZM16.85 8.79337C16.85 10.5043 15.463 11.8913 13.7521 11.8913C12.0412 11.8913 10.6542 10.5043 10.6542 8.79337C10.6542 7.08244 12.0412 5.69547 13.7521 5.69547C15.463 5.69547 16.85 7.08244 16.85 8.79337Z" stroke="#5AC178" stroke-width="1.48699" stroke-linecap="round" stroke-linejoin="round"/>
</svg>
