<svg width="15" height="18" viewBox="0 0 15 18" fill="none" xmlns="http://www.w3.org/2000/svg">
<path d="M6.70345 1.63353H2.09729C1.74826 1.63353 1.41352 1.81378 1.16671 2.13463C0.919904 2.45548 0.78125 2.89064 0.78125 3.34439V15.3204C0.78125 15.7741 0.919904 16.2093 1.16671 16.5302C1.41352 16.851 1.74826 17.0313 2.09729 17.0313H11.3096C11.6586 17.0313 11.9934 16.851 12.2402 16.5302C12.487 16.2093 12.6256 15.7741 12.6256 15.3204V9.33239M10.8983 1.31275C11.1601 0.972435 11.5152 0.78125 11.8854 0.78125C12.2556 0.78125 12.6106 0.972435 12.8724 1.31275C13.1342 1.65306 13.2813 2.11462 13.2813 2.59589C13.2813 3.07716 13.1342 3.53872 12.8724 3.87903L6.94165 11.5899C6.78541 11.7928 6.59238 11.9414 6.38036 12.0219L4.48986 12.7404C4.43324 12.7619 4.37322 12.7632 4.31609 12.7441C4.25895 12.7251 4.2068 12.6865 4.16509 12.6323C4.12339 12.578 4.09366 12.5102 4.07902 12.436C4.06438 12.3617 4.06537 12.2837 4.08189 12.2101L4.63463 9.75241C4.69683 9.477 4.81133 9.22637 4.96759 9.02358L10.8983 1.31275Z" stroke="#636363" stroke-width="1.5625" stroke-linecap="round" stroke-linejoin="round"/>
</svg>
