<svg width="14" height="14" viewBox="0 0 14 14" fill="none" xmlns="http://www.w3.org/2000/svg">
<path d="M2.56394 5.95213C2.73317 6.33293 2.99254 6.66683 3.31966 6.92498C3.64678 7.18313 4.03182 7.35778 4.44153 7.43384C4.85124 7.50991 5.27331 7.4851 5.67129 7.36157C6.06928 7.23804 6.43121 7.0195 6.72584 6.72481C7.02048 6.43012 7.23895 6.06815 7.36241 5.67014C7.48586 5.27214 7.51059 4.85006 7.43444 4.44036C7.3583 4.03067 7.18358 3.64566 6.92537 3.31859C6.66715 2.99152 6.33321 2.73221 5.95237 2.56306M5.66032 3.37053C5.52489 3.93538 5.32334 4.5015 4.91254 4.9123C4.50175 5.3231 3.93626 5.52464 3.37077 5.66008C2.45326 5.87981 1.64832 6.42869 1.10869 7.20259C0.569053 7.97648 0.332267 8.92153 0.443255 9.85844C0.554243 10.7953 1.00528 11.6589 1.7108 12.2853C2.41631 12.9117 3.32722 13.2573 4.27068 13.2566C9.23361 13.2566 13.2568 9.23336 13.2568 4.27043C13.2576 3.32697 12.9119 2.41607 12.2856 1.71055C11.6592 1.00504 10.7956 0.553999 9.85869 0.443011C8.92178 0.332022 7.97672 0.568809 7.20283 1.10844C6.42894 1.64808 5.88005 2.45302 5.66032 3.37053Z" stroke="#5AC178" stroke-width="0.832695" stroke-linecap="round" stroke-linejoin="round"/>
</svg>
