<svg width="20" height="26" viewBox="0 0 20 26" fill="none" xmlns="http://www.w3.org/2000/svg">
<path d="M9.5271 2.56603H3.17518C2.69386 2.56603 2.23225 2.82097 1.8919 3.27477C1.55156 3.72856 1.36035 4.34404 1.36035 4.98581V21.9242C1.36035 22.566 1.55156 23.1815 1.8919 23.6353C2.23225 24.0891 2.69386 24.344 3.17518 24.344H15.879C16.3603 24.344 16.8219 24.0891 17.1623 23.6353C17.5026 23.1815 17.6938 22.566 17.6938 21.9242V13.455M15.3119 2.11232C15.6729 1.631 16.1625 1.3606 16.673 1.3606C17.1835 1.3606 17.6731 1.631 18.0341 2.11232C18.3951 2.59365 18.5979 3.24646 18.5979 3.92716C18.5979 4.60785 18.3951 5.26066 18.0341 5.74199L9.85558 16.6479C9.64012 16.935 9.37393 17.1451 9.08156 17.2589L6.47455 18.2752C6.39647 18.3056 6.3137 18.3074 6.23491 18.2805C6.15612 18.2536 6.0842 18.1989 6.02669 18.1222C5.96918 18.0456 5.92818 17.9497 5.908 17.8446C5.88781 17.7396 5.88918 17.6292 5.91195 17.5251L6.67418 14.0491C6.75996 13.6596 6.91785 13.3051 7.13333 13.0183L15.3119 2.11232Z" stroke="#636363" stroke-width="2.72115" stroke-linecap="round" stroke-linejoin="round"/>
</svg>
