<svg width="24" height="27" viewBox="0 0 24 27" fill="none" xmlns="http://www.w3.org/2000/svg">
<path d="M9.61449 11.9731V19.048M14.3311 11.9731V19.048M20.227 6.07725V22.5855C20.227 23.211 19.9785 23.8108 19.5362 24.2531C19.094 24.6954 18.4941 24.9439 17.8686 24.9439H6.077C5.45154 24.9439 4.85169 24.6954 4.40942 24.2531C3.96714 23.8108 3.71868 23.211 3.71868 22.5855V6.07725M1.36035 6.07725H22.5853M7.25617 6.07725V3.71892C7.25617 3.09346 7.50463 2.49361 7.94691 2.05133C8.38918 1.60906 8.98903 1.3606 9.61449 1.3606H14.3311C14.9566 1.3606 15.5565 1.60906 15.9987 2.05133C16.441 2.49361 16.6895 3.09346 16.6895 3.71892V6.07725" stroke="white" stroke-width="2.72115" stroke-linecap="round" stroke-linejoin="round"/>
</svg>
