<svg width="10" height="11" viewBox="0 0 10 11" fill="none" xmlns="http://www.w3.org/2000/svg">
<path d="M3.8441 4.787V7.6157M5.7299 4.787V7.6157M8.08715 2.42975V9.03006C8.08715 9.28013 7.98781 9.51996 7.81099 9.69679C7.63416 9.87362 7.39433 9.97296 7.14425 9.97296H2.42975C2.17967 9.97296 1.93984 9.87362 1.76302 9.69679C1.58619 9.51996 1.48685 9.28013 1.48685 9.03006V2.42975M0.543945 2.42975H9.03006M2.9012 2.42975V1.48685C2.9012 1.23677 3.00054 0.996943 3.17737 0.820115C3.3542 0.643286 3.59403 0.543945 3.8441 0.543945H5.7299C5.97997 0.543945 6.21981 0.643286 6.39663 0.820115C6.57346 0.996943 6.6728 1.23677 6.6728 1.48685V2.42975" stroke="white" stroke-width="1.08796" stroke-linecap="round" stroke-linejoin="round"/>
</svg>
