<svg width="26" height="27" viewBox="0 0 26 27" fill="none" xmlns="http://www.w3.org/2000/svg">
<path d="M21.1873 5.69535L23.9011 11.2716C24.4205 12.8687 24.4261 14.5884 23.9171 16.1889C23.408 17.7894 22.41 19.1899 21.0634 20.1935C17.3459 23.2914 11.8936 25.5219 6.93697 25.5219C6.24707 25.521 5.57104 25.328 4.98453 24.9648C4.39803 24.6015 3.92418 24.0821 3.61603 23.4649L1.23684 18.7065M18.5851 15.2369C19.6014 14.4731 20.4225 13.4795 20.9812 12.3375C21.5399 11.1955 21.8203 9.93749 21.7995 8.66631C21.7788 7.39514 21.4574 6.14693 20.8617 5.02379C20.2659 3.90066 19.4128 2.93449 18.3721 2.20431C17.3313 1.47414 16.1325 1.0007 14.8737 0.822725C13.6148 0.644747 12.3317 0.767284 11.1294 1.18031C9.92698 1.59334 8.83944 2.28513 7.95571 3.1991C7.07197 4.11307 6.41714 5.22325 6.04478 6.43884C4.6817 10.3174 5.07823 11.2716 2.10425 13.9729C1.51164 14.4588 1.08365 15.1159 0.878859 15.8543C0.674069 16.5928 0.702488 17.3764 0.960226 18.0981C1.21796 18.8198 1.69243 19.4442 2.31867 19.8858C2.94492 20.3274 3.69235 20.5647 4.45865 20.5653C9.41529 20.5653 14.8676 18.3348 18.5851 15.2369ZM16.8502 8.79324C16.8502 10.5042 15.4633 11.8911 13.7523 11.8911C12.0414 11.8911 10.6545 10.5042 10.6545 8.79324C10.6545 7.08232 12.0414 5.69535 13.7523 5.69535C15.4633 5.69535 16.8502 7.08232 16.8502 8.79324Z" stroke="#5AC178" stroke-width="1.48699" stroke-linecap="round" stroke-linejoin="round"/>
</svg>
