<svg width="22" height="27" viewBox="0 0 22 27" fill="none" xmlns="http://www.w3.org/2000/svg">
<path d="M10.1585 2.47569H3.17802C2.64906 2.47569 2.14177 2.74885 1.76775 3.23509C1.39372 3.72132 1.18359 4.3808 1.18359 5.06844V23.2177C1.18359 23.9053 1.39372 24.5648 1.76775 25.051C2.14177 25.5373 2.64906 25.8104 3.17802 25.8104H17.139C17.6679 25.8104 18.1752 25.5373 18.5493 25.051C18.9233 24.5648 19.1334 23.9053 19.1334 23.2177V14.1431M16.5157 1.98955C16.9124 1.47382 17.4505 1.18408 18.0116 1.18408C18.5726 1.18408 19.1107 1.47382 19.5074 1.98955C19.9041 2.50528 20.127 3.20476 20.127 3.93411C20.127 4.66346 19.9041 5.36294 19.5074 5.87867L10.5195 17.5642C10.2827 17.8718 9.99018 18.0969 9.66887 18.2189L6.80388 19.3078C6.71807 19.3404 6.62711 19.3423 6.54053 19.3135C6.45394 19.2846 6.37491 19.2261 6.3117 19.1439C6.2485 19.0617 6.20345 18.959 6.18127 18.8464C6.15908 18.7339 6.16058 18.6156 6.18561 18.5041L7.02327 14.7796C7.11753 14.3622 7.29105 13.9824 7.52786 13.6751L16.5157 1.98955Z" stroke="#636363" stroke-width="2.36792" stroke-linecap="round" stroke-linejoin="round"/>
</svg>
