<svg width="14" height="15" viewBox="0 0 14 15" fill="none" xmlns="http://www.w3.org/2000/svg">
<path d="M5.24479 6.53125V10.3906M7.81771 6.53125V10.3906M11.0339 3.3151V12.3203C11.0339 12.6615 10.8983 12.9887 10.6571 13.23C10.4158 13.4712 10.0886 13.6068 9.7474 13.6068H3.3151C2.97391 13.6068 2.6467 13.4712 2.40544 13.23C2.16418 12.9887 2.02865 12.6615 2.02865 12.3203V3.3151M0.742188 3.3151H12.3203M3.95833 3.3151V2.02865C3.95833 1.68746 4.09387 1.36024 4.33513 1.11898C4.57639 0.877725 4.9036 0.742188 5.24479 0.742188H7.81771C8.1589 0.742188 8.48611 0.877725 8.72737 1.11898C8.96863 1.36024 9.10417 1.68746 9.10417 2.02865V3.3151" stroke="white" stroke-width="1.48438" stroke-linecap="round" stroke-linejoin="round"/>
</svg>
