<svg width="26" height="27" viewBox="0 0 26 27" fill="none" xmlns="http://www.w3.org/2000/svg">
<path d="M21.1871 5.69544L23.9008 11.2717C24.4203 12.8688 24.4259 14.5885 23.9168 16.189C23.4078 17.7894 22.4098 19.19 21.0631 20.1936C17.3457 23.2915 11.8934 25.522 6.93673 25.522C6.24683 25.521 5.5708 25.3281 4.98429 24.9649C4.39778 24.6016 3.92394 24.0822 3.61578 23.465L1.2366 18.7066M18.5848 15.237C19.6012 14.4732 20.4223 13.4796 20.981 12.3376C21.5397 11.1956 21.8201 9.93758 21.7993 8.6664C21.7785 7.39523 21.4571 6.14702 20.8614 5.02388C20.2657 3.90075 19.4126 2.93458 18.3718 2.20441C17.3311 1.47423 16.1322 1.00079 14.8734 0.822817C13.6146 0.644839 12.3315 0.767376 11.1291 1.18041C9.92674 1.59344 8.8392 2.28523 7.95547 3.19919C7.07173 4.11316 6.4169 5.22334 6.04453 6.43893C4.68146 10.3175 5.07799 11.2717 2.10401 13.973C1.51139 14.4589 1.0834 15.116 0.878615 15.8544C0.673825 16.5928 0.702244 17.3765 0.959982 18.0982C1.21772 18.8199 1.69218 19.4442 2.31843 19.8859C2.94467 20.3275 3.6921 20.5648 4.45841 20.5654C9.41505 20.5654 14.8673 18.3349 18.5848 15.237ZM16.85 8.79334C16.85 10.5043 15.463 11.8912 13.7521 11.8912C12.0412 11.8912 10.6542 10.5043 10.6542 8.79334C10.6542 7.08241 12.0412 5.69544 13.7521 5.69544C15.463 5.69544 16.85 7.08241 16.85 8.79334Z" stroke="#5AC178" stroke-width="1.48699" stroke-linecap="round" stroke-linejoin="round"/>
</svg>
