<svg width="24" height="24" viewBox="0 0 24 24" fill="none" xmlns="http://www.w3.org/2000/svg">
<path d="M4.49318 10.4314C4.78975 11.0988 5.2443 11.684 5.81759 12.1364C6.39088 12.5888 7.06567 12.8949 7.7837 13.0282C8.50173 13.1615 9.24142 13.118 9.93889 12.9015C10.6364 12.685 11.2707 12.302 11.787 11.7856C12.3034 11.2691 12.6862 10.6348 12.9026 9.93724C13.119 9.23972 13.1623 8.50003 13.0289 7.78202C12.8954 7.06402 12.5892 6.38928 12.1367 5.81608C11.6842 5.24288 11.0989 4.78844 10.4315 4.492M9.91966 5.90711C9.68231 6.89701 9.32909 7.88917 8.60916 8.6091C7.88923 9.32903 6.8982 9.68225 5.90717 9.9196C4.2992 10.3047 2.88853 11.2666 1.94281 12.6229C0.997083 13.9791 0.582108 15.6354 0.776618 17.2773C0.971127 18.9193 1.76159 20.4327 2.99802 21.5305C4.23445 22.6282 5.83083 23.234 7.48427 23.2327C16.1819 23.2327 23.2328 16.1819 23.2328 7.48421C23.234 5.83077 22.6283 4.23439 21.5305 2.99796C20.4328 1.76153 18.9194 0.971066 17.2774 0.776557C15.6354 0.582047 13.9792 0.997022 12.6229 1.94275C11.2667 2.88847 10.3047 4.29914 9.91966 5.90711Z" stroke="#5AC178" stroke-width="1.45932" stroke-linecap="round" stroke-linejoin="round"/>
</svg>
