<svg width="21" height="23" viewBox="0 0 21 23" fill="none" xmlns="http://www.w3.org/2000/svg">
<path d="M8.36677 10.4188V16.5754M12.4712 10.4188V16.5754M17.6017 5.28835V19.6537C17.6017 20.198 17.3854 20.72 17.0006 21.1049C16.6157 21.4897 16.0937 21.7059 15.5495 21.7059H5.28848C4.7442 21.7059 4.22222 21.4897 3.83735 21.1049C3.45249 20.72 3.23628 20.198 3.23628 19.6537V5.28835M1.18408 5.28835H19.6539M6.31458 5.28835V3.23616C6.31458 2.69188 6.53079 2.1699 6.91565 1.78503C7.30051 1.40017 7.8225 1.18396 8.36677 1.18396H12.4712C13.0154 1.18396 13.5374 1.40017 13.9223 1.78503C14.3072 2.1699 14.5234 2.69188 14.5234 3.23616V5.28835" stroke="white" stroke-width="2.36792" stroke-linecap="round" stroke-linejoin="round"/>
</svg>
