<svg width="22" height="27" viewBox="0 0 22 27" fill="none" xmlns="http://www.w3.org/2000/svg">
<path d="M10.159 2.47557H3.17851C2.64955 2.47557 2.14226 2.74873 1.76824 3.23496C1.39421 3.7212 1.18408 4.38068 1.18408 5.06832V23.2176C1.18408 23.9052 1.39421 24.5647 1.76824 25.0509C2.14226 25.5372 2.64955 25.8103 3.17851 25.8103H17.1395C17.6684 25.8103 18.1757 25.5372 18.5497 25.0509C18.9238 24.5647 19.1339 23.9052 19.1339 23.2176V14.1429M16.5162 1.98942C16.9129 1.47369 17.451 1.18396 18.012 1.18396C18.5731 1.18396 19.1111 1.47369 19.5079 1.98942C19.9046 2.50515 20.1274 3.20464 20.1274 3.93399C20.1274 4.66334 19.9046 5.36282 19.5079 5.87855L10.52 17.5641C10.2832 17.8716 9.99067 18.0968 9.66936 18.2188L6.80437 19.3077C6.71856 19.3402 6.6276 19.3422 6.54102 19.3134C6.45443 19.2845 6.3754 19.2259 6.31219 19.1438C6.24899 19.0616 6.20394 18.9589 6.18175 18.8463C6.15957 18.7338 6.16107 18.6155 6.1861 18.504L7.02376 14.7795C7.11802 14.3621 7.29154 13.9823 7.52835 13.675L16.5162 1.98942Z" stroke="#636363" stroke-width="2.36792" stroke-linecap="round" stroke-linejoin="round"/>
</svg>
