<svg width="14" height="17" viewBox="0 0 14 17" fill="none" xmlns="http://www.w3.org/2000/svg">
<path d="M6.36828 1.55185H1.99243C1.66084 1.55185 1.34284 1.72309 1.10837 2.0279C0.873909 2.3327 0.742188 2.74611 0.742188 3.17717V14.5544C0.742188 14.9854 0.873909 15.3988 1.10837 15.7036C1.34284 16.0084 1.66084 16.1797 1.99243 16.1797H10.7441C11.0757 16.1797 11.3937 16.0084 11.6282 15.7036C11.8626 15.3988 11.9944 14.9854 11.9944 14.5544V8.86577M10.3534 1.24711C10.6021 0.923813 10.9394 0.742188 11.2911 0.742188C11.6428 0.742188 11.9801 0.923813 12.2288 1.24711C12.4775 1.5704 12.6172 2.00889 12.6172 2.46609C12.6172 2.9233 12.4775 3.36178 12.2288 3.68508L6.59457 11.0104C6.44614 11.2032 6.26276 11.3443 6.06134 11.4208L4.26537 12.1034C4.21158 12.1238 4.15456 12.125 4.10028 12.1069C4.046 12.0889 3.99646 12.0521 3.95684 12.0006C3.91722 11.9491 3.88898 11.8847 3.87507 11.8142C3.86117 11.7436 3.86211 11.6695 3.87779 11.5995L4.4029 9.26478C4.46199 9.00315 4.57076 8.76505 4.71921 8.5724L10.3534 1.24711Z" stroke="#636363" stroke-width="1.48438" stroke-linecap="round" stroke-linejoin="round"/>
</svg>
