<svg width="21" height="23" viewBox="0 0 21 23" fill="none" xmlns="http://www.w3.org/2000/svg">
<path d="M8.36628 10.4188V16.5754M12.4707 10.4188V16.5754M17.6012 5.28835V19.6537C17.6012 20.198 17.385 20.72 17.0001 21.1049C16.6152 21.4897 16.0933 21.7059 15.549 21.7059H5.28799C4.74371 21.7059 4.22173 21.4897 3.83687 21.1049C3.452 20.72 3.23579 20.198 3.23579 19.6537V5.28835M1.18359 5.28835H19.6534M6.31409 5.28835V3.23616C6.31409 2.69188 6.5303 2.1699 6.91516 1.78503C7.30002 1.40017 7.82201 1.18396 8.36628 1.18396H12.4707C13.015 1.18396 13.5369 1.40017 13.9218 1.78503C14.3067 2.1699 14.5229 2.69188 14.5229 3.23616V5.28835" stroke="white" stroke-width="2.36792" stroke-linecap="round" stroke-linejoin="round"/>
</svg>
