<svg width="35" height="35" viewBox="0 0 35 35" fill="none" xmlns="http://www.w3.org/2000/svg">
<path d="M26.7237 30.6041C26.7237 27.9917 25.7096 25.4864 23.9043 23.6391C22.0991 21.7919 19.6507 20.7541 17.0977 20.7541M17.0977 20.7541C14.5447 20.7541 12.0962 21.7919 10.291 23.6391C8.48576 25.4864 7.47159 27.9917 7.47159 30.6041M17.0977 20.7541C20.6419 20.7541 23.5151 17.8142 23.5151 14.1875C23.5151 10.5609 20.6419 7.62089 17.0977 7.62089C13.5534 7.62089 10.6803 10.5609 10.6803 14.1875C10.6803 17.8142 13.5534 20.7541 17.0977 20.7541ZM33.1411 17.4708C33.1411 26.5375 25.9582 33.8874 17.0977 33.8874C8.2371 33.8874 1.0542 26.5375 1.0542 17.4708C1.0542 8.40421 8.2371 1.05426 17.0977 1.05426C25.9582 1.05426 33.1411 8.40421 33.1411 17.4708Z" stroke="#B0B0B0" stroke-width="2.10847" stroke-linecap="round" stroke-linejoin="round"/>
</svg>
