<svg width="34" height="36" viewBox="0 0 34 36" fill="none" xmlns="http://www.w3.org/2000/svg">
<path d="M21.9499 33.7699V20.2623C21.9499 19.8145 21.772 19.385 21.4554 19.0684C21.1387 18.7517 20.7093 18.5738 20.2615 18.5738H13.5076C13.0598 18.5738 12.6304 18.7517 12.3137 19.0684C11.9971 19.385 11.8192 19.8145 11.8192 20.2623V33.7699M1.68848 15.1969C1.68836 14.7057 1.79541 14.2203 2.00217 13.7748C2.20893 13.3292 2.51041 12.934 2.88559 12.617L14.7048 2.48624C15.3143 1.9711 16.0865 1.68848 16.8846 1.68848C17.6826 1.68848 18.4548 1.9711 19.0643 2.48624L30.8835 12.617C31.2587 12.934 31.5602 13.3292 31.7669 13.7748C31.9737 14.2203 32.0808 14.7057 32.0806 15.1969V30.393C32.0806 31.2886 31.7249 32.1475 31.0916 32.7808C30.4583 33.4141 29.5993 33.7699 28.7037 33.7699H5.06538C4.16977 33.7699 3.31084 33.4141 2.67755 32.7808C2.04426 32.1475 1.68848 31.2886 1.68848 30.393V15.1969Z" stroke="#85D68E" stroke-width="3.37691" stroke-linecap="round" stroke-linejoin="round"/>
</svg>
