<svg width="30" height="35" viewBox="0 0 30 35" fill="none" xmlns="http://www.w3.org/2000/svg">
<path d="M7.16667 14V9.125C7.16667 6.97012 7.97879 4.90349 9.42439 3.37976C10.87 1.85602 12.8306 1 14.875 1C16.9194 1 18.88 1.85602 20.3256 3.37976C21.7712 4.90349 22.5833 6.97012 22.5833 9.125V14M16.4167 23.75C16.4167 24.6475 15.7264 25.375 14.875 25.375C14.0236 25.375 13.3333 24.6475 13.3333 23.75C13.3333 22.8525 14.0236 22.125 14.875 22.125C15.7264 22.125 16.4167 22.8525 16.4167 23.75ZM4.08333 14H25.6667C27.3695 14 28.75 15.4551 28.75 17.25V30.25C28.75 32.0449 27.3695 33.5 25.6667 33.5H4.08333C2.38046 33.5 1 32.0449 1 30.25V17.25C1 15.4551 2.38046 14 4.08333 14Z" stroke="#B0B0B0" stroke-width="2" stroke-linecap="round" stroke-linejoin="round"/>
</svg>
