<svg width="15" height="15" viewBox="0 0 15 15" fill="none" xmlns="http://www.w3.org/2000/svg">
<path d="M6.625 8.125V11.125M9.625 2.125V5.125M0.625 0.625V12.625C0.625 13.0228 0.783035 13.4044 1.06434 13.6857C1.34564 13.967 1.72718 14.125 2.125 14.125H14.125M4.375 8.125H9.625C10.0392 8.125 10.375 8.46079 10.375 8.875V10.375C10.375 10.7892 10.0392 11.125 9.625 11.125H4.375C3.96079 11.125 3.625 10.7892 3.625 10.375V8.875C3.625 8.46079 3.96079 8.125 4.375 8.125ZM4.375 2.125H11.875C12.2892 2.125 12.625 2.46079 12.625 2.875V4.375C12.625 4.78921 12.2892 5.125 11.875 5.125H4.375C3.96079 5.125 3.625 4.78921 3.625 4.375V2.875C3.625 2.46079 3.96079 2.125 4.375 2.125Z" stroke="#636363" stroke-width="1.25" stroke-linecap="round" stroke-linejoin="round"/>
</svg>
