<svg width="14" height="14" viewBox="0 0 14 14" fill="none" xmlns="http://www.w3.org/2000/svg">
<path d="M2.56394 5.95225C2.73317 6.33306 2.99254 6.66695 3.31966 6.9251C3.64678 7.18325 4.03182 7.3579 4.44153 7.43396C4.85124 7.51003 5.27331 7.48523 5.67129 7.3617C6.06928 7.23817 6.43121 7.01962 6.72584 6.72493C7.02048 6.43024 7.23895 6.06827 7.36241 5.67026C7.48586 5.27226 7.51059 4.85018 7.43444 4.44049C7.3583 4.03079 7.18358 3.64578 6.92537 3.31871C6.66715 2.99164 6.33321 2.73233 5.95237 2.56318M5.66032 3.37065C5.52489 3.9355 5.32334 4.50163 4.91254 4.91242C4.50175 5.32322 3.93626 5.52477 3.37077 5.6602C2.45326 5.87993 1.64832 6.42882 1.10869 7.20271C0.569053 7.9766 0.332267 8.92166 0.443255 9.85856C0.554243 10.7955 1.00528 11.659 1.7108 12.2854C2.41631 12.9118 3.32722 13.2574 4.27068 13.2567C9.23361 13.2567 13.2568 9.23349 13.2568 4.27055C13.2576 3.32709 12.9119 2.41619 12.2856 1.71068C11.6592 1.00516 10.7956 0.554121 9.85869 0.443133C8.92178 0.332144 7.97672 0.568931 7.20283 1.10857C6.42894 1.6482 5.88005 2.45314 5.66032 3.37065Z" stroke="#5AC178" stroke-width="0.832695" stroke-linecap="round" stroke-linejoin="round"/>
</svg>
