<svg width="15" height="15" viewBox="0 0 15 15" fill="none" xmlns="http://www.w3.org/2000/svg">
<path d="M12.0896 3.2498L13.6381 6.43161C13.9345 7.34293 13.9377 8.32424 13.6472 9.23747C13.3567 10.1507 12.7872 10.9499 12.0189 11.5225C9.89765 13.2902 6.78654 14.5629 3.95826 14.5629C3.5646 14.5624 3.17885 14.4523 2.84419 14.245C2.50952 14.0377 2.23914 13.7414 2.06331 13.3892L0.705732 10.674M10.6047 8.69424C11.1846 8.25842 11.6532 7.6915 11.972 7.03986C12.2908 6.38823 12.4508 5.67038 12.4389 4.94504C12.4271 4.2197 12.2437 3.50747 11.9038 2.8666C11.5638 2.22574 11.077 1.67444 10.4832 1.25779C9.88931 0.841154 9.20526 0.571008 8.48697 0.469453C7.76868 0.367898 7.03654 0.437818 6.35046 0.673495C5.66437 0.909172 5.04382 1.30391 4.53955 1.82543C4.03529 2.34694 3.66164 2.98041 3.44917 3.67404C2.67139 5.88717 2.89765 6.43161 1.20068 7.97303C0.862534 8.25025 0.61832 8.6252 0.501466 9.04656C0.384612 9.46791 0.400828 9.91509 0.547894 10.3269C0.694961 10.7387 0.965691 11.0949 1.32303 11.3469C1.68037 11.5989 2.10686 11.7344 2.54412 11.7346C5.3724 11.7346 8.48351 10.4619 10.6047 8.69424ZM9.61482 5.01747C9.61482 5.99373 8.82341 6.78515 7.84715 6.78515C6.87089 6.78515 6.07947 5.99373 6.07947 5.01747C6.07947 4.04121 6.87089 3.2498 7.84715 3.2498C8.82341 3.2498 9.61482 4.04121 9.61482 5.01747Z" stroke="#5AC178" stroke-width="0.848485" stroke-linecap="round" stroke-linejoin="round"/>
</svg>
