<svg width="19" height="19" viewBox="0 0 19 19" fill="none" xmlns="http://www.w3.org/2000/svg">
<path d="M14.625 16.375C14.625 14.9826 14.0719 13.6473 13.0873 12.6627C12.1027 11.6781 10.7674 11.125 9.375 11.125M9.375 11.125C7.98261 11.125 6.64726 11.6781 5.66269 12.6627C4.67812 13.6473 4.125 14.9826 4.125 16.375M9.375 11.125C11.308 11.125 12.875 9.558 12.875 7.625C12.875 5.692 11.308 4.125 9.375 4.125C7.442 4.125 5.875 5.692 5.875 7.625C5.875 9.558 7.442 11.125 9.375 11.125ZM18.125 9.375C18.125 14.2075 14.2075 18.125 9.375 18.125C4.54251 18.125 0.625 14.2075 0.625 9.375C0.625 4.54251 4.54251 0.625 9.375 0.625C14.2075 0.625 18.125 4.54251 18.125 9.375Z" stroke="#B0B0B0" stroke-width="1.25" stroke-linecap="round" stroke-linejoin="round"/>
</svg>
