<svg width="30" height="43" viewBox="0 0 30 43" fill="none" xmlns="http://www.w3.org/2000/svg">
<path d="M8.23085 24.7887L3.70235 22.2704M20.2698 23.2481L14.8298 20.2054M16.76 13.069C16.76 13.069 18.9923 8.7144 21.8199 7.91528C25.5613 6.85791 28.8289 9.6581 28.8289 9.6581C28.8289 9.6581 27.5104 13.7544 23.769 14.8118C20.0276 15.8692 16.76 13.069 16.76 13.069ZM16.76 13.069C16.76 13.069 12.6637 11.7504 11.6063 8.00907C10.5489 4.26769 13.3491 1.00006 13.3491 1.00006C13.3491 1.00006 17.4454 2.31862 18.5028 6.05999C19.3117 8.92205 16.76 13.069 16.76 13.069ZM1.0001 41.1684C1.0001 41.1684 16.3119 30.3246 19.8493 24C20.3669 23.0762 20.6976 22.0595 20.8223 21.0079C20.947 19.9563 20.8634 18.8904 20.5762 17.8712C20.289 16.8519 19.8038 15.8992 19.1484 15.0674C18.493 14.2356 17.6802 13.5411 16.7564 13.0235C15.8326 12.5058 14.8159 12.1752 13.7643 12.0505C12.7127 11.9257 11.6469 12.0094 10.6276 12.2966C9.60834 12.5838 8.65562 13.0689 7.82385 13.7243C6.99207 14.3797 6.29753 15.1925 5.77988 16.1163C2.23008 22.463 1.0001 41.1684 1.0001 41.1684Z" stroke="#5AC178" stroke-width="2" stroke-linecap="round" stroke-linejoin="round"/>
</svg>
