<svg width="24" height="24" viewBox="0 0 24 24" fill="none" xmlns="http://www.w3.org/2000/svg">
<path d="M4.49294 10.4314C4.7895 11.0988 5.24406 11.684 5.81734 12.1364C6.39063 12.5888 7.06542 12.8949 7.78345 13.0282C8.50148 13.1615 9.24117 13.118 9.93865 12.9015C10.6361 12.685 11.2704 12.302 11.7868 11.7856C12.3031 11.2691 12.686 10.6348 12.9024 9.93724C13.1187 9.23972 13.1621 8.50003 13.0286 7.78202C12.8952 7.06402 12.589 6.38928 12.1364 5.81608C11.6839 5.24288 11.0987 4.78844 10.4312 4.492M9.91942 5.90711C9.68206 6.89701 9.32885 7.88917 8.60892 8.6091C7.88899 9.32903 6.89796 9.68225 5.90693 9.9196C4.29896 10.3047 2.88829 11.2666 1.94256 12.6229C0.996839 13.9791 0.581864 15.6354 0.776374 17.2773C0.970883 18.9193 1.76134 20.4327 2.99778 21.5305C4.23421 22.6282 5.83059 23.234 7.48402 23.2327C16.1817 23.2327 23.2325 16.1819 23.2325 7.48421C23.2338 5.83077 22.6281 4.23439 21.5303 2.99796C20.4325 1.76153 18.9191 0.971066 17.2772 0.776557C15.6352 0.582047 13.979 0.997022 12.6227 1.94275C11.2664 2.88847 10.3045 4.29914 9.91942 5.90711Z" stroke="#5AC178" stroke-width="1.45932" stroke-linecap="round" stroke-linejoin="round"/>
</svg>
