<svg width="26" height="27" viewBox="0 0 26 27" fill="none" xmlns="http://www.w3.org/2000/svg">
<path d="M21.1873 5.69544L23.9011 11.2717C24.4205 12.8688 24.4261 14.5885 23.9171 16.189C23.408 17.7894 22.41 19.19 21.0634 20.1936C17.3459 23.2915 11.8936 25.522 6.93697 25.522C6.24707 25.521 5.57104 25.3281 4.98453 24.9649C4.39803 24.6016 3.92418 24.0822 3.61603 23.465L1.23684 18.7066M18.5851 15.237C19.6014 14.4732 20.4225 13.4796 20.9812 12.3376C21.5399 11.1956 21.8203 9.93758 21.7995 8.6664C21.7788 7.39523 21.4574 6.14702 20.8617 5.02388C20.2659 3.90075 19.4128 2.93458 18.3721 2.20441C17.3313 1.47423 16.1325 1.00079 14.8737 0.822817C13.6148 0.644839 12.3317 0.767376 11.1294 1.18041C9.92698 1.59344 8.83944 2.28523 7.95571 3.19919C7.07197 4.11316 6.41714 5.22334 6.04478 6.43893C4.6817 10.3175 5.07823 11.2717 2.10425 13.973C1.51164 14.4589 1.08365 15.116 0.878859 15.8544C0.674069 16.5928 0.702488 17.3765 0.960226 18.0982C1.21796 18.8199 1.69243 19.4442 2.31867 19.8859C2.94492 20.3275 3.69235 20.5648 4.45865 20.5654C9.41529 20.5654 14.8676 18.3349 18.5851 15.237ZM16.8502 8.79334C16.8502 10.5043 15.4633 11.8912 13.7523 11.8912C12.0414 11.8912 10.6545 10.5043 10.6545 8.79334C10.6545 7.08241 12.0414 5.69544 13.7523 5.69544C15.4633 5.69544 16.8502 7.08241 16.8502 8.79334Z" stroke="#5AC178" stroke-width="1.48699" stroke-linecap="round" stroke-linejoin="round"/>
</svg>
