<svg width="25" height="25" viewBox="0 0 25 25" fill="none" xmlns="http://www.w3.org/2000/svg">
<path d="M10.0357 19.2046H3.6574C3.30952 19.1927 2.97297 19.078 2.69015 18.8751C2.40733 18.6722 2.1909 18.3901 2.06811 18.0644C1.35196 15.5648 1.40603 12.9073 2.22328 10.4389M19.2046 10.0357V3.6574C19.1927 3.30952 19.078 2.97297 18.8751 2.69015C18.6722 2.40733 18.3901 2.1909 18.0644 2.06811C15.5651 1.3522 12.9081 1.40627 10.4401 2.22328M19.2046 3.92306C20.4517 3.92306 21.6477 4.2946 22.5295 4.95595C23.4113 5.6173 23.9066 6.51428 23.9066 7.44957C23.9066 8.0731 23.6589 8.67109 23.218 9.11199C22.7771 9.55289 22.1792 9.80058 21.5556 9.80058C19.428 9.80005 17.3402 10.377 15.5147 11.4698M3.92306 19.2046C3.92306 20.4517 4.2946 21.6477 4.95595 22.5295C5.6173 23.4113 6.51428 23.9066 7.44957 23.9066C8.0731 23.9066 8.67109 23.6589 9.11199 23.218C9.55289 22.7771 9.80058 22.1792 9.80058 21.5556C9.79984 19.4276 10.3768 17.3394 11.4698 15.5135M8.28301 1.04777C6.6097 1.6305 5.08977 2.58396 3.83686 3.83686C2.58396 5.08977 1.6305 6.6097 1.04777 8.28301C0.961823 8.6447 0.992389 9.0243 1.1351 9.36757C1.27782 9.71085 1.52538 10.0002 1.84242 10.1944L13.3706 16.5656C13.817 16.8124 14.3315 16.9073 14.8366 16.8361C15.3417 16.7648 15.8099 16.5312 16.1705 16.1705C16.5312 15.8099 16.7648 15.3417 16.8361 14.8366C16.9073 14.3315 16.8124 13.817 16.5656 13.3706L10.1944 1.84242C10.0002 1.52538 9.71085 1.27782 9.36757 1.1351C9.0243 0.992389 8.6447 0.961823 8.28301 1.04777Z" stroke="#5AC178" stroke-width="2" stroke-linecap="round" stroke-linejoin="round"/>
</svg>
