<svg width="10" height="11" viewBox="0 0 10 11" fill="none" xmlns="http://www.w3.org/2000/svg">
<path d="M3.8441 4.78703V7.61574M5.7299 4.78703V7.61574M8.08715 2.42978V9.03009C8.08715 9.28016 7.98781 9.51999 7.81099 9.69682C7.63416 9.87365 7.39433 9.97299 7.14425 9.97299H2.42975C2.17967 9.97299 1.93984 9.87365 1.76302 9.69682C1.58619 9.51999 1.48685 9.28016 1.48685 9.03009V2.42978M0.543945 2.42978H9.03006M2.9012 2.42978V1.48688C2.9012 1.2368 3.00054 0.996973 3.17737 0.820145C3.3542 0.643317 3.59403 0.543976 3.8441 0.543976H5.7299C5.97997 0.543976 6.21981 0.643317 6.39663 0.820145C6.57346 0.996973 6.6728 1.2368 6.6728 1.48688V2.42978" stroke="white" stroke-width="1.08796" stroke-linecap="round" stroke-linejoin="round"/>
</svg>
