<svg width="10" height="13" viewBox="0 0 10 13" fill="none" xmlns="http://www.w3.org/2000/svg">
<path d="M4.66755 1.13742H1.4603C1.21727 1.13742 0.98419 1.26292 0.81234 1.48633C0.64049 1.70973 0.543945 2.01274 0.543945 2.32868V10.6675C0.543945 10.9835 0.64049 11.2865 0.81234 11.5099C0.98419 11.7333 1.21727 11.8588 1.4603 11.8588H7.8748C8.11783 11.8588 8.35091 11.7333 8.52276 11.5099C8.69461 11.2865 8.79116 10.9835 8.79116 10.6675V6.4981M7.58844 0.914054C7.77071 0.677097 8.01793 0.543976 8.27571 0.543976C8.53348 0.543976 8.7807 0.677097 8.96297 0.914054C9.14525 1.15101 9.24765 1.47239 9.24765 1.8075C9.24765 2.14261 9.14525 2.46399 8.96297 2.70095L4.83341 8.06998C4.72462 8.21129 4.59021 8.31473 4.44259 8.37077L3.12624 8.8711C3.08681 8.88605 3.04502 8.88695 3.00524 8.8737C2.96545 8.86045 2.92914 8.83354 2.9001 8.79579C2.87106 8.75803 2.85036 8.71083 2.84017 8.65911C2.82998 8.60739 2.83067 8.55306 2.84217 8.50181L3.22704 6.79056C3.27035 6.59879 3.35007 6.42428 3.45888 6.28308L7.58844 0.914054Z" stroke="#636363" stroke-width="1.08796" stroke-linecap="round" stroke-linejoin="round"/>
</svg>
