<svg width="18" height="18" viewBox="0 0 18 18" fill="none" xmlns="http://www.w3.org/2000/svg">
<path d="M3.27812 7.61066C3.4945 8.09757 3.82613 8.52449 4.2444 8.85457C4.66266 9.18465 5.15499 9.40796 5.67885 9.50522C6.20272 9.60247 6.74239 9.57076 7.25126 9.41281C7.76013 9.25486 8.22291 8.97542 8.59964 8.59863C8.97636 8.22183 9.25571 7.759 9.41356 7.2501C9.57142 6.7412 9.60303 6.20152 9.50567 5.67767C9.40831 5.15383 9.18491 4.66155 8.85475 4.24334C8.52459 3.82514 8.09761 3.49358 7.61066 3.2773M7.23723 4.30976C7.06406 5.03198 6.80636 5.75585 6.2811 6.2811C5.75585 6.80636 5.0328 7.06406 4.30976 7.23723C3.1366 7.51819 2.10739 8.22001 1.41739 9.20953C0.727403 10.199 0.424641 11.4074 0.566553 12.6054C0.708465 13.8033 1.28518 14.9075 2.18727 15.7084C3.08936 16.5093 4.25406 16.9513 5.46039 16.9503C11.8061 16.9503 16.9503 11.8061 16.9503 5.46039C16.9513 4.25406 16.5093 3.08936 15.7084 2.18727C14.9075 1.28518 13.8033 0.708465 12.6054 0.566553C11.4074 0.424641 10.199 0.727403 9.20953 1.41739C8.22001 2.10739 7.51819 3.1366 7.23723 4.30976Z" stroke="#5AC178" stroke-width="1.06471" stroke-linecap="round" stroke-linejoin="round"/>
</svg>
