<svg width="42" height="42" viewBox="0 0 42 42" fill="none" xmlns="http://www.w3.org/2000/svg">
<path d="M7.79982 18.1086C8.31466 19.2671 9.10375 20.283 10.099 21.0683C11.0942 21.8537 12.2656 22.385 13.5121 22.6165C14.7585 22.8479 16.0426 22.7724 17.2534 22.3966C18.4642 22.0208 19.5653 21.3559 20.4617 20.4594C21.3581 19.5628 22.0227 18.4616 22.3983 17.2507C22.7739 16.0398 22.8491 14.7557 22.6175 13.5093C22.3858 12.2629 21.8543 11.0916 21.0687 10.0965C20.2831 9.10144 19.2672 8.31255 18.1085 7.79793M17.22 10.2545C16.808 11.973 16.1948 13.6953 14.945 14.9451C13.6953 16.1949 11.9749 16.808 10.2545 17.2201C7.46309 17.8886 5.0142 19.5585 3.37245 21.9129C1.73071 24.2673 1.01032 27.1425 1.34799 29.9929C1.68565 32.8433 3.05786 35.4705 5.20427 37.3762C7.35068 39.2819 10.1219 40.3334 12.9923 40.3312C28.0911 40.3312 40.3312 28.0912 40.3312 12.9923C40.3333 10.122 39.2818 7.35074 37.3762 5.20434C35.4705 3.05793 32.8432 1.68571 29.9928 1.34805C27.1424 1.01038 24.2673 1.73077 21.9128 3.37252C19.5584 5.01426 17.8885 7.46315 17.22 10.2545Z" stroke="#5AC178" stroke-width="2.53333" stroke-linecap="round" stroke-linejoin="round"/>
</svg>
