<svg width="38" height="54" viewBox="0 0 38 54" fill="none" xmlns="http://www.w3.org/2000/svg">
<path d="M10.4256 31.399L4.68952 28.2091M25.675 29.4476L18.7843 25.5935M21.2292 16.554C21.2292 16.554 24.0569 11.0382 27.6385 10.026C32.3775 8.68666 36.5165 12.2336 36.5165 12.2336C36.5165 12.2336 34.8464 17.4223 30.1073 18.7616C25.3682 20.101 21.2292 16.554 21.2292 16.554ZM21.2292 16.554C21.2292 16.554 16.0405 14.8839 14.7012 10.1448C13.3618 5.40572 16.9087 1.26671 16.9087 1.26671C16.9087 1.26671 22.0974 2.93689 23.4368 7.67596C24.4614 11.3012 21.2292 16.554 21.2292 16.554ZM1.26668 52.1467C1.26668 52.1467 20.6616 38.4112 25.1423 30.4C25.798 29.2298 26.2168 27.942 26.3748 26.61C26.5328 25.278 26.4268 23.9279 26.063 22.6368C25.6993 21.3457 25.0847 20.139 24.2546 19.0854C23.4244 18.0318 22.3949 17.152 21.2247 16.4964C20.0545 15.8407 18.7667 15.4219 17.4347 15.2639C16.1027 15.1059 14.7526 15.2118 13.4615 15.5756C12.1704 15.9394 10.9637 16.5539 9.91009 17.3841C8.85651 18.2143 7.97676 19.2438 7.32107 20.414C2.82466 28.4532 1.26668 52.1467 1.26668 52.1467Z" stroke="#5AC178" stroke-width="2.53333" stroke-linecap="round" stroke-linejoin="round"/>
</svg>
