<svg width="42" height="47" viewBox="0 0 42 47" fill="none" xmlns="http://www.w3.org/2000/svg">
<path d="M29.5571 18.7293C29.5571 21.0266 28.6445 23.2299 27.02 24.8544C25.3955 26.4789 23.1922 27.3916 20.8948 27.3916C18.5974 27.3916 16.3941 26.4789 14.7696 24.8544C13.1452 23.2299 12.2325 21.0266 12.2325 18.7293M1.62772 10.1406H40.1619M2.27089 8.91273C1.70861 9.66243 1.40466 10.5743 1.40466 11.5114V40.385C1.40466 41.5337 1.86098 42.6353 2.67323 43.4476C3.48547 44.2598 4.58712 44.7161 5.73581 44.7161H36.0538C37.2025 44.7161 38.3041 44.2598 39.1164 43.4476C39.9286 42.6353 40.385 41.5337 40.385 40.385V11.5114C40.385 10.5743 40.081 9.66243 39.5187 8.91273L35.1876 3.13715C34.7841 2.59924 34.261 2.16265 33.6596 1.86194C33.0582 1.56124 32.3951 1.40469 31.7227 1.40469H10.0669C9.39456 1.40469 8.73141 1.56124 8.13 1.86194C7.5286 2.16265 7.00547 2.59924 6.60204 3.13715L2.27089 8.91273Z" stroke="#E4FFE7" stroke-width="2.80939" stroke-linecap="round" stroke-linejoin="round"/>
</svg>
