<svg width="42" height="42" viewBox="0 0 42 42" fill="none" xmlns="http://www.w3.org/2000/svg">
<path d="M20.7944 10.1088V3.21944C20.7944 2.70153 21.0002 2.20483 21.3664 1.83862C21.7326 1.4724 22.2293 1.26666 22.7472 1.26666M20.7944 10.1088C22.4803 8.60098 24.5665 7.61329 26.8013 7.26501C29.0361 6.91672 31.324 7.22272 33.3887 8.14607C35.4535 9.06942 37.2068 10.5706 38.4371 12.4685C39.6674 14.3664 40.3221 16.5799 40.3222 18.8417C40.3527 26.0322 37.7372 32.9828 32.9739 38.3694C32.0996 39.3475 30.9224 40.0039 29.6307 40.2333C28.3391 40.4627 27.0078 40.252 25.8502 39.6348C24.2943 38.8047 22.5579 38.3705 20.7944 38.3705C19.0309 38.3705 17.2946 38.8047 15.7387 39.6348C14.581 40.252 13.2498 40.4627 11.9581 40.2333C10.6665 40.0039 9.48922 39.3475 8.61495 38.3694C3.86747 32.9733 1.25432 26.0289 1.26664 18.8417C1.2667 16.5799 1.9214 14.3664 3.15172 12.4685C4.38204 10.5706 6.13539 9.06942 8.20012 8.14607C10.2649 7.22272 12.5527 6.91672 14.7875 7.26501C17.0223 7.61329 19.1086 8.60098 20.7944 10.1088Z" stroke="#5AC178" stroke-width="2.53333" stroke-linecap="round" stroke-linejoin="round"/>
</svg>
