<svg width="19" height="20" viewBox="0 0 19 20" fill="none" xmlns="http://www.w3.org/2000/svg">
<path d="M15.458 4.15531L17.4379 8.22366C17.8169 9.3889 17.821 10.6436 17.4496 11.8113C17.0782 12.979 16.3501 14.0008 15.3676 14.733C12.6553 16.9932 8.67739 18.6206 5.06107 18.6206C4.55772 18.6199 4.0645 18.4791 3.63659 18.2141C3.20868 17.949 2.86297 17.5702 2.63814 17.1198L0.902306 13.6481M13.5594 11.1167C14.3009 10.5595 14.9 9.83459 15.3076 9.00139C15.7152 8.16819 15.9198 7.25034 15.9047 6.3229C15.8895 5.39546 15.655 4.48478 15.2204 3.66535C14.7858 2.84592 14.1633 2.14101 13.404 1.60828C12.6447 1.07555 11.77 0.730139 10.8516 0.600288C9.93317 0.470437 8.99705 0.559839 8.1198 0.861182C7.24255 1.16252 6.4491 1.66725 5.80433 2.33407C5.15957 3.00089 4.68181 3.81087 4.41013 4.69776C3.41565 7.52752 3.70495 8.22367 1.53516 10.1946C1.1028 10.549 0.790539 11.0284 0.641126 11.5672C0.491713 12.106 0.512447 12.6777 0.700491 13.2042C0.888534 13.7308 1.2347 14.1863 1.6916 14.5085C2.1485 14.8307 2.69382 15.0039 3.25291 15.0043C6.86923 15.0043 10.8472 13.3769 13.5594 11.1167ZM12.2937 6.41551C12.2937 7.66378 11.2818 8.6757 10.0335 8.6757C8.78523 8.6757 7.77331 7.66378 7.77331 6.41551C7.77331 5.16723 8.78523 4.15531 10.0335 4.15531C11.2818 4.15531 12.2937 5.16723 12.2937 6.41551Z" stroke="#5AC178" stroke-width="1.0849" stroke-linecap="round" stroke-linejoin="round"/>
</svg>
