<svg width="43" height="45" viewBox="0 0 43 45" fill="none" xmlns="http://www.w3.org/2000/svg">
<path d="M36.0957 9.7031L40.7191 19.2031C41.604 21.924 41.6136 24.854 40.7463 27.5806C39.8791 30.3072 38.1788 32.6933 35.8846 34.4031C29.5513 39.6809 20.2624 43.4809 11.8179 43.4809C10.6426 43.4793 9.49085 43.1506 8.49164 42.5317C7.49243 41.9128 6.68516 41.028 6.16016 39.9764L2.10683 31.8698M31.6624 25.9587C33.3939 24.6574 34.7927 22.9648 35.7446 21.0192C36.6964 19.0736 37.1742 16.9303 37.1388 14.7646C37.1034 12.599 36.5558 10.4724 35.5409 8.559C34.526 6.64555 33.0726 4.99952 31.2995 3.75555C29.5264 2.51158 27.484 1.70501 25.3394 1.40179C23.1948 1.09858 21.0088 1.30734 18.9604 2.011C16.9119 2.71467 15.0591 3.89324 13.5535 5.45034C12.0479 7.00743 10.9323 8.89881 10.2979 10.9698C7.97572 17.5775 8.65127 19.2031 3.58461 23.8053C2.57499 24.633 1.84584 25.7525 1.49695 27.0106C1.14806 28.2686 1.19647 29.6038 1.63557 30.8332C2.07467 32.0627 2.88299 33.1264 3.9499 33.8789C5.01682 34.6313 6.29018 35.0356 7.59572 35.0364C16.0402 35.0364 25.329 31.2364 31.6624 25.9587ZM28.7068 14.9809C28.7068 17.8957 26.3439 20.2587 23.429 20.2587C20.5142 20.2587 18.1513 17.8957 18.1513 14.9809C18.1513 12.066 20.5142 9.7031 23.429 9.7031C26.3439 9.7031 28.7068 12.066 28.7068 14.9809Z" stroke="#5AC178" stroke-width="2.53333" stroke-linecap="round" stroke-linejoin="round"/>
</svg>
